<svg preserveAspectRatio="none" width="100%" height="100%" overflow="visible" style="display: block;" viewBox="0 0 9.62577 8.07911" fill="none" xmlns="http://www.w3.org/2000/svg">
<path id="Combined-Shape" d="M6.29856 0.298603C5.91119 -0.0950493 5.27805 -0.100141 4.88439 0.28723C4.52102 0.644803 4.48873 1.21179 4.79059 1.60652L4.87302 1.7014L6.23779 3.089L1.10107 3.08928C0.383101 3.08928 0.0461864 3.47929 0.00445557 3.98032L0 4.08928C0 4.60474 0.289049 5.02912 0.953021 5.08341L1.10107 5.08928L6.18179 5.089L4.88459 6.36614C4.49083 6.75341 4.48557 7.38655 4.87283 7.78031C5.2303 8.14378 5.79728 8.17623 6.19209 7.87447L6.28699 7.79207L9.32697 4.80224C9.69051 4.4447 9.72289 3.87758 9.42098 3.48277L9.33854 3.38788L6.29856 0.298603Z" fill="var(--fill-0, #020203)"/>
</svg>
