<svg preserveAspectRatio="none" width="100%" height="100%" overflow="visible" style="display: block;" viewBox="0 0 20 20" fill="none" xmlns="http://www.w3.org/2000/svg">
<path id="Shape" fill-rule="evenodd" clip-rule="evenodd" d="M14 2C14 0.895431 13.1046 0 12 0H8C6.89543 0 6 0.895431 6 2V10H2C0.895431 10 0 10.8954 0 12V18C0 19.1046 0.895431 20 2 20H6H8H12H14H18C19.1046 20 20 19.1046 20 18V8C20 6.89543 19.1046 6 18 6H14V2ZM8 18H12V7V2L8 2V12V18ZM6 18V12H2V18H6ZM18 18H14V8H18V18Z" fill="var(--fill-0, #020203)"/>
</svg>
