<svg preserveAspectRatio="none" width="100%" height="100%" overflow="visible" style="display: block;" viewBox="0 0 18 18.0329" fill="none" xmlns="http://www.w3.org/2000/svg">
<path id="Shape" fill-rule="evenodd" clip-rule="evenodd" d="M0.829019 5.4342C0.308394 5.8102 0 6.41335 0 7.05556V16.0329C0 17.1375 0.89543 18.0329 2 18.0329H5V16.0329V11.5329C5 10.1522 6.11929 9.03293 7.5 9.03293H10.5C11.8807 9.03293 13 10.1522 13 11.5329V16.0329V18.0329H16C17.1046 18.0329 18 17.1375 18 16.0329V7.05556C18 6.41335 17.6916 5.8102 17.171 5.4342L10.171 0.378642C9.47195 -0.126214 8.52805 -0.126214 7.82902 0.378641L0.829019 5.4342ZM11 18.0329V11.5329C11 11.2568 10.7761 11.0329 10.5 11.0329H7.5C7.22386 11.0329 7 11.2568 7 11.5329V18.0329H11Z" fill="var(--fill-0, #020203)"/>
</svg>
