<svg preserveAspectRatio="none" width="100%" height="100%" overflow="visible" style="display: block;" viewBox="0 0 18 18" fill="none" xmlns="http://www.w3.org/2000/svg">
<path id="Shape" fill-rule="evenodd" clip-rule="evenodd" d="M2 0C0.895431 0 0 0.895431 0 2V3V4V16C0 17.1046 0.895431 18 2 18H16C17.1046 18 18 17.1046 18 16V6.00003C18 4.89546 17.1046 4.00003 16 4.00003V2C16 0.89543 15.1046 0 14 0H2ZM9.5 6H2V16H16V14H14C12.3431 14 11 12.6569 11 11C11 9.34315 12.3431 8 14 8H16V6.00003L9.5 6ZM2 3C2 3.55228 2.44772 4 3 4H14V2H3C2.44772 2 2 2.44772 2 3ZM14 10H16V12H14C13.4477 12 13 11.5523 13 11C13 10.4477 13.4477 10 14 10Z" fill="var(--fill-0, #020203)"/>
</svg>
