<svg preserveAspectRatio="none" width="100%" height="100%" overflow="visible" style="display: block;" viewBox="0 0 20 20" fill="none" xmlns="http://www.w3.org/2000/svg">
<g id="Shape">
<path fill-rule="evenodd" clip-rule="evenodd" d="M15.6569 15.6569C12.5327 18.781 7.46734 18.781 4.34315 15.6569C1.21895 12.5327 1.21895 7.46734 4.34315 4.34315C7.46734 1.21895 12.5327 1.21895 15.6569 4.34315C18.781 7.46734 18.781 12.5327 15.6569 15.6569ZM17.0711 17.0711C13.1658 20.9763 6.83417 20.9763 2.92893 17.0711C-0.976311 13.1658 -0.976311 6.83417 2.92893 2.92893C6.83418 -0.976311 13.1658 -0.976311 17.0711 2.92893C20.9763 6.83417 20.9763 13.1658 17.0711 17.0711ZM4.34315 8.33579C4.34315 7.7835 4.79086 7.33579 5.34315 7.33579H10.8284L9.70711 6.21447C9.31658 5.82394 9.31658 5.19078 9.70711 4.80025C10.0976 4.40973 10.7308 4.40973 11.1213 4.80025L13.9497 7.62868C14.2357 7.91468 14.3213 8.3448 14.1665 8.71847C14.0117 9.09214 13.6471 9.33579 13.2426 9.33579H5.34315C4.79086 9.33579 4.34315 8.88807 4.34315 8.33579ZM14.6569 12.6643H9.17161L10.2929 13.7856C10.6835 14.1761 10.6835 14.8093 10.2929 15.1998C9.90241 15.5903 9.26925 15.5903 8.87872 15.1998L6.05029 12.3714C5.7643 12.0854 5.67874 11.6552 5.83352 11.2816C5.9883 10.9079 6.35294 10.6643 6.7574 10.6643H14.6569C15.2092 10.6643 15.6569 11.112 15.6569 11.6643C15.6569 12.2165 15.2092 12.6643 14.6569 12.6643Z" fill="var(--fill-0, #020203)"/>
</g>
</svg>
