<svg preserveAspectRatio="none" width="100%" height="100%" overflow="visible" style="display: block;" viewBox="0 0 18 18" fill="none" xmlns="http://www.w3.org/2000/svg">
<path id="Shape" fill-rule="evenodd" clip-rule="evenodd" d="M16 18H2C0.895431 18 0 17.1046 0 16V10C0 8.89543 0.89543 8 2 8H4L4.00003 2C4.00003 0.895432 4.89546 0 6.00003 0H16C17.1046 0 18 0.895429 18 2V16C18 17.1046 17.1046 18 16 18ZM4 10L4 15C4 15.5523 3.55229 16 3 16C2.44772 16 2 15.5523 2 15L2 10H4ZM9 4C8.44772 4 8 4.44772 8 5C8 5.55228 8.44772 6 9 6H13C13.5523 6 14 5.55228 14 5C14 4.44772 13.5523 4 13 4H9ZM8 9C8 8.44772 8.44772 8 9 8H13C13.5523 8 14 8.44772 14 9C14 9.55228 13.5523 10 13 10H9C8.44772 10 8 9.55228 8 9Z" fill="var(--fill-0, #020203)"/>
</svg>
