<svg preserveAspectRatio="none" width="100%" height="100%" overflow="visible" style="display: block;" viewBox="0 0 37.5 41.6667" fill="none" xmlns="http://www.w3.org/2000/svg">
<g id="Icons/24/Switch">
<path id="&#240;&#159;&#142;&#168;-Icons/Color" fill-rule="evenodd" clip-rule="evenodd" d="M35.4167 20.8333C36.4851 20.8333 37.3656 21.6376 37.486 22.6737L37.5 22.9167V25C37.5 30.6016 33.0785 33.0871 27.5352 33.3237L27.0833 33.3333H7.11458L11.8898 38.1102C12.6408 38.8612 12.6986 40.0429 12.0631 40.8602L11.8898 41.0565C11.1388 41.8075 9.95707 41.8653 9.13979 41.2298L8.94353 41.0565L0.610194 32.7231L0.457685 32.553C0.452858 32.547 0.448065 32.541 0.443304 32.5349L0.610194 32.7231C0.536457 32.6494 0.469402 32.5715 0.40903 32.4902C0.371854 32.4399 0.336914 32.3881 0.304307 32.3347C0.287946 32.3083 0.272383 32.2814 0.257468 32.2544C0.23563 32.2145 0.214694 32.1733 0.195112 32.1315C0.178498 32.096 0.162909 32.06 0.148386 32.0236C0.131908 31.9825 0.116922 31.9412 0.103222 31.8995C0.0931849 31.8684 0.0835367 31.8364 0.0746772 31.8042C0.0621532 31.7592 0.051333 31.7141 0.0420108 31.6683C0.0347963 31.632 0.0283918 31.5957 0.0229538 31.5593C0.016877 31.5196 0.011975 31.4785 0.00828654 31.4371C0.00388679 31.3868 0.0012487 31.3375 0.000349184 31.2883C0.000114705 31.2755 0 31.2628 0 31.25L0.000349184 31.2117C0.00128708 31.1604 0.00411479 31.109 0.00883291 31.0578L0 31.25C0 31.1445 0.00783558 31.0409 0.0229567 30.9397C0.0294471 30.8972 0.0373185 30.8539 0.0465676 30.8108C0.0546114 30.7724 0.0639934 30.7341 0.0744189 30.6962C0.0835371 30.6636 0.093185 30.6316 0.103621 30.5997C0.116922 30.5588 0.131908 30.5175 0.148133 30.477C0.162909 30.44 0.178498 30.404 0.195153 30.3683C0.215368 30.3252 0.237071 30.2827 0.260158 30.2411C0.273956 30.2158 0.288764 30.1904 0.304157 30.1652C0.336914 30.1119 0.371855 30.0601 0.408987 30.0101C0.418162 29.9975 0.427447 29.9853 0.436885 29.9731C0.495144 29.899 0.550889 29.8362 0.610194 29.7769L8.94353 21.4435C9.75712 20.6299 11.0762 20.6299 11.8898 21.4435C12.6408 22.1945 12.6986 23.3763 12.0631 24.1935L11.8898 24.3898L7.11458 29.1667H27.0833C30.4118 29.1667 33.1326 28.6481 33.3227 25.3672L33.3333 25V22.9167C33.3333 21.7661 34.2661 20.8333 35.4167 20.8333ZM28.3602 0.436885L28.5565 0.610194L36.8898 8.94353C36.9491 9.00283 37.0049 9.0657 37.0567 9.13177L36.8898 8.94353C36.9635 9.01727 37.0306 9.09516 37.091 9.17645C37.1281 9.22681 37.1631 9.27859 37.1957 9.33196C37.2112 9.35706 37.226 9.38251 37.2403 9.4082C37.2629 9.44939 37.2846 9.49189 37.3049 9.53521C37.3215 9.57063 37.3371 9.60668 37.3516 9.64305C37.3673 9.68221 37.3816 9.72137 37.3947 9.76105C37.4055 9.79398 37.4159 9.82815 37.4253 9.86252C37.4379 9.90742 37.4487 9.95261 37.458 9.99835C37.4652 10.0346 37.4716 10.0709 37.477 10.1074C37.4834 10.1489 37.4885 10.1919 37.4922 10.2353C37.4955 10.2744 37.4977 10.3119 37.4989 10.3495C37.4996 10.3704 37.5 10.3935 37.5 10.4167L37.4989 10.4859C37.4977 10.5221 37.4955 10.5582 37.4925 10.5942L37.5 10.4167C37.5 10.5221 37.4922 10.6258 37.477 10.727C37.4716 10.7624 37.4652 10.7987 37.4578 10.8348C37.4487 10.8807 37.4379 10.9259 37.4256 10.9705C37.4165 11.003 37.4068 11.0351 37.3964 11.067C37.3831 11.1079 37.3681 11.1491 37.3519 11.1897C37.3371 11.2267 37.3215 11.2627 37.3048 11.2984C37.2846 11.3414 37.2629 11.3839 37.2398 11.4256C37.226 11.4508 37.2112 11.4763 37.1958 11.5015C37.1631 11.5547 37.1281 11.6065 37.091 11.6566C37.0818 11.6692 37.0726 11.6814 37.0631 11.6935C37.0519 11.7076 37.0471 11.7137 37.0423 11.7197L36.8898 11.8898L28.5565 20.2231C27.7429 21.0367 26.4238 21.0367 25.6102 20.2231C24.8592 19.4721 24.8014 18.2904 25.4369 17.4731L25.6102 17.2769L30.3833 12.5H10.4167C7.08817 12.5 4.36737 13.0186 4.17728 16.2994L4.16667 16.6667V18.75C4.16667 19.9006 3.23393 20.8333 2.08333 20.8333C1.01493 20.8333 0.13436 20.0291 0.014016 18.993L0 18.75V16.6667C0 11.0651 4.42147 8.57955 9.96481 8.34296L10.4167 8.33333H30.3833L25.6102 3.55647C24.8592 2.80546 24.8014 1.62373 25.4369 0.806459L25.6102 0.610194C26.3612 -0.140814 27.5429 -0.198584 28.3602 0.436885Z" fill="var(--fill-0, white)"/>
</g>
</svg>
